M48
; DRILL file {KiCad 6.0.1-79c1e3a40b~116~ubuntu21.04.1} date Tue 15 Feb 2022 04:14:26 PM
; FORMAT={-:-/ absolute / metric / decimal}
; #@! TF.CreationDate,2022-02-15T16:14:26-05:00
; #@! TF.GenerationSoftware,Kicad,Pcbnew,6.0.1-79c1e3a40b~116~ubuntu21.04.1
; #@! TF.FileFunction,Plated,1,2,PTH
FMAT,2
METRIC
; #@! TA.AperFunction,Plated,PTH,ViaDrill
T1C0.400
; #@! TA.AperFunction,Plated,PTH,ComponentDrill
T2C0.762
%
G90
G05
T1
X60.15Y-76.65
X60.45Y-105.6
X60.6Y-98.4
X60.6Y-112.4
X60.6Y-119.4
X66.35Y-76.65
X68.2Y-109.4
X68.2Y-117.8
X69.4Y-109.4
X69.4Y-117.8
X71.2Y-105.2
X71.8Y-119.6
X71.945Y-112.718
X73.215Y-119.642
X75.25Y-107.2
X76.2Y-111.0
X81.5Y-97.995
X81.5Y-99.265
X81.5Y-108.155
X81.5Y-109.425
X81.5Y-110.695
X81.5Y-111.965
X81.5Y-113.235
X84.285Y-96.995
X90.525Y-103.66
X98.5Y-113.235
X103.65Y-103.6
X103.75Y-110.05
X104.6Y-96.4
X104.6Y-105.6
X105.6Y-100.15
X109.4Y-113.6
X111.45Y-108.9
X115.2Y-97.6
X116.05Y-108.9
T2
X81.65Y-47.5
X81.65Y-69.5
X84.19Y-47.5
X84.19Y-69.5
X86.73Y-47.5
X86.73Y-69.5
X89.27Y-47.5
X89.27Y-69.5
X91.81Y-47.5
X91.81Y-69.5
X94.35Y-47.5
X94.35Y-69.5
T0
M30
