%FSLAX45Y45*%
G04 Gerber Fmt 4.5, Leading zero omitted, Abs format (unit mm)*
G04 Created by KiCad (PCBNEW 6.0.1-79c1e3a40b~116~ubuntu21.04.1) date 2022-02-15 16:14:27*
%MOMM*%
%LPD*%
G01*
G04 APERTURE LIST*
%TA.AperFunction,Profile*%
%ADD10C,0.050000*%
%TD*%
%ADD11C,0.200000*%
%ADD12C,0.090000*%
%ADD13C,0.400000*%
%ADD14C,0.650000*%
G04 APERTURE END LIST*
D10*
X5500000Y-12300000D02*
X5500000Y-3200000D01*
X12100000Y-12300000D02*
X5500000Y-12300000D01*
X12100000Y-3200000D02*
X12100000Y-12300000D01*
X5500000Y-3200000D02*
X12100000Y-3200000D01*
D11*
D12*
X11126600Y-11601200D02*
X11216600Y-11691200D01*
X11216600Y-11601200D02*
X11126600Y-11691200D01*
X11566600Y-11601200D02*
X11656600Y-11691200D01*
X11656600Y-11601200D02*
X11566600Y-11691200D01*
D13*
X6250000Y-3900000D02*
G75*
G03*
X6250000Y-3900000I-200000J0D01*
G01*
X11750000Y-3900000D02*
G75*
G03*
X11750000Y-3900000I-200000J0D01*
G01*
D14*
X8763000Y-3586600D02*
X8763000Y-4236600D01*
X8438000Y-3911600D02*
X9088000Y-3911600D01*
D11*
X5755119Y-12612976D02*
X5755119Y-12412976D01*
X5802738Y-12412976D01*
X5831309Y-12422500D01*
X5850357Y-12441548D01*
X5859881Y-12460595D01*
X5869405Y-12498690D01*
X5869405Y-12527262D01*
X5859881Y-12565357D01*
X5850357Y-12584405D01*
X5831309Y-12603452D01*
X5802738Y-12612976D01*
X5755119Y-12612976D01*
X5955119Y-12612976D02*
X5955119Y-12479643D01*
X5955119Y-12517738D02*
X5964643Y-12498690D01*
X5974167Y-12489167D01*
X5993214Y-12479643D01*
X6012262Y-12479643D01*
X6078928Y-12612976D02*
X6078928Y-12479643D01*
X6078928Y-12412976D02*
X6069405Y-12422500D01*
X6078928Y-12432024D01*
X6088452Y-12422500D01*
X6078928Y-12412976D01*
X6078928Y-12432024D01*
X6202738Y-12612976D02*
X6183690Y-12603452D01*
X6174167Y-12584405D01*
X6174167Y-12412976D01*
X6307500Y-12612976D02*
X6288452Y-12603452D01*
X6278928Y-12584405D01*
X6278928Y-12412976D01*
X6536071Y-12612976D02*
X6536071Y-12412976D01*
X6602738Y-12555833D01*
X6669405Y-12412976D01*
X6669405Y-12612976D01*
X6850357Y-12612976D02*
X6850357Y-12508214D01*
X6840833Y-12489167D01*
X6821786Y-12479643D01*
X6783690Y-12479643D01*
X6764643Y-12489167D01*
X6850357Y-12603452D02*
X6831309Y-12612976D01*
X6783690Y-12612976D01*
X6764643Y-12603452D01*
X6755119Y-12584405D01*
X6755119Y-12565357D01*
X6764643Y-12546309D01*
X6783690Y-12536786D01*
X6831309Y-12536786D01*
X6850357Y-12527262D01*
X6945595Y-12479643D02*
X6945595Y-12679643D01*
X6945595Y-12489167D02*
X6964643Y-12479643D01*
X7002738Y-12479643D01*
X7021786Y-12489167D01*
X7031309Y-12498690D01*
X7040833Y-12517738D01*
X7040833Y-12574881D01*
X7031309Y-12593928D01*
X7021786Y-12603452D01*
X7002738Y-12612976D01*
X6964643Y-12612976D01*
X6945595Y-12603452D01*
X7126548Y-12593928D02*
X7136071Y-12603452D01*
X7126548Y-12612976D01*
X7117024Y-12603452D01*
X7126548Y-12593928D01*
X7126548Y-12612976D01*
X7126548Y-12489167D02*
X7136071Y-12498690D01*
X7126548Y-12508214D01*
X7117024Y-12498690D01*
X7126548Y-12489167D01*
X7126548Y-12508214D01*
D12*
X5407500Y-12897500D02*
X5497500Y-12987500D01*
X5497500Y-12897500D02*
X5407500Y-12987500D01*
D11*
X5793214Y-12832976D02*
X5812262Y-12832976D01*
X5831309Y-12842500D01*
X5840833Y-12852024D01*
X5850357Y-12871071D01*
X5859881Y-12909167D01*
X5859881Y-12956786D01*
X5850357Y-12994881D01*
X5840833Y-13013928D01*
X5831309Y-13023452D01*
X5812262Y-13032976D01*
X5793214Y-13032976D01*
X5774167Y-13023452D01*
X5764643Y-13013928D01*
X5755119Y-12994881D01*
X5745595Y-12956786D01*
X5745595Y-12909167D01*
X5755119Y-12871071D01*
X5764643Y-12852024D01*
X5774167Y-12842500D01*
X5793214Y-12832976D01*
X5945595Y-13013928D02*
X5955119Y-13023452D01*
X5945595Y-13032976D01*
X5936071Y-13023452D01*
X5945595Y-13013928D01*
X5945595Y-13032976D01*
X6050357Y-13032976D02*
X6088452Y-13032976D01*
X6107500Y-13023452D01*
X6117024Y-13013928D01*
X6136071Y-12985357D01*
X6145595Y-12947262D01*
X6145595Y-12871071D01*
X6136071Y-12852024D01*
X6126548Y-12842500D01*
X6107500Y-12832976D01*
X6069405Y-12832976D01*
X6050357Y-12842500D01*
X6040833Y-12852024D01*
X6031309Y-12871071D01*
X6031309Y-12918690D01*
X6040833Y-12937738D01*
X6050357Y-12947262D01*
X6069405Y-12956786D01*
X6107500Y-12956786D01*
X6126548Y-12947262D01*
X6136071Y-12937738D01*
X6145595Y-12918690D01*
X6269405Y-12832976D02*
X6288452Y-12832976D01*
X6307500Y-12842500D01*
X6317024Y-12852024D01*
X6326548Y-12871071D01*
X6336071Y-12909167D01*
X6336071Y-12956786D01*
X6326548Y-12994881D01*
X6317024Y-13013928D01*
X6307500Y-13023452D01*
X6288452Y-13032976D01*
X6269405Y-13032976D01*
X6250357Y-13023452D01*
X6240833Y-13013928D01*
X6231309Y-12994881D01*
X6221786Y-12956786D01*
X6221786Y-12909167D01*
X6231309Y-12871071D01*
X6240833Y-12852024D01*
X6250357Y-12842500D01*
X6269405Y-12832976D01*
X6459881Y-12832976D02*
X6478928Y-12832976D01*
X6497976Y-12842500D01*
X6507500Y-12852024D01*
X6517024Y-12871071D01*
X6526548Y-12909167D01*
X6526548Y-12956786D01*
X6517024Y-12994881D01*
X6507500Y-13013928D01*
X6497976Y-13023452D01*
X6478928Y-13032976D01*
X6459881Y-13032976D01*
X6440833Y-13023452D01*
X6431309Y-13013928D01*
X6421786Y-12994881D01*
X6412262Y-12956786D01*
X6412262Y-12909167D01*
X6421786Y-12871071D01*
X6431309Y-12852024D01*
X6440833Y-12842500D01*
X6459881Y-12832976D01*
X6612262Y-13032976D02*
X6612262Y-12899643D01*
X6612262Y-12918690D02*
X6621786Y-12909167D01*
X6640833Y-12899643D01*
X6669405Y-12899643D01*
X6688452Y-12909167D01*
X6697976Y-12928214D01*
X6697976Y-13032976D01*
X6697976Y-12928214D02*
X6707500Y-12909167D01*
X6726548Y-12899643D01*
X6755119Y-12899643D01*
X6774167Y-12909167D01*
X6783690Y-12928214D01*
X6783690Y-13032976D01*
X6878928Y-13032976D02*
X6878928Y-12899643D01*
X6878928Y-12918690D02*
X6888452Y-12909167D01*
X6907500Y-12899643D01*
X6936071Y-12899643D01*
X6955119Y-12909167D01*
X6964643Y-12928214D01*
X6964643Y-13032976D01*
X6964643Y-12928214D02*
X6974167Y-12909167D01*
X6993214Y-12899643D01*
X7021786Y-12899643D01*
X7040833Y-12909167D01*
X7050357Y-12928214D01*
X7050357Y-13032976D01*
X7440833Y-12823452D02*
X7269405Y-13080595D01*
X7697976Y-12832976D02*
X7717024Y-12832976D01*
X7736071Y-12842500D01*
X7745595Y-12852024D01*
X7755119Y-12871071D01*
X7764643Y-12909167D01*
X7764643Y-12956786D01*
X7755119Y-12994881D01*
X7745595Y-13013928D01*
X7736071Y-13023452D01*
X7717024Y-13032976D01*
X7697976Y-13032976D01*
X7678928Y-13023452D01*
X7669405Y-13013928D01*
X7659881Y-12994881D01*
X7650357Y-12956786D01*
X7650357Y-12909167D01*
X7659881Y-12871071D01*
X7669405Y-12852024D01*
X7678928Y-12842500D01*
X7697976Y-12832976D01*
X7850357Y-13013928D02*
X7859881Y-13023452D01*
X7850357Y-13032976D01*
X7840833Y-13023452D01*
X7850357Y-13013928D01*
X7850357Y-13032976D01*
X7983690Y-12832976D02*
X8002738Y-12832976D01*
X8021786Y-12842500D01*
X8031309Y-12852024D01*
X8040833Y-12871071D01*
X8050357Y-12909167D01*
X8050357Y-12956786D01*
X8040833Y-12994881D01*
X8031309Y-13013928D01*
X8021786Y-13023452D01*
X8002738Y-13032976D01*
X7983690Y-13032976D01*
X7964643Y-13023452D01*
X7955119Y-13013928D01*
X7945595Y-12994881D01*
X7936071Y-12956786D01*
X7936071Y-12909167D01*
X7945595Y-12871071D01*
X7955119Y-12852024D01*
X7964643Y-12842500D01*
X7983690Y-12832976D01*
X8117024Y-12832976D02*
X8240833Y-12832976D01*
X8174167Y-12909167D01*
X8202738Y-12909167D01*
X8221786Y-12918690D01*
X8231309Y-12928214D01*
X8240833Y-12947262D01*
X8240833Y-12994881D01*
X8231309Y-13013928D01*
X8221786Y-13023452D01*
X8202738Y-13032976D01*
X8145595Y-13032976D01*
X8126548Y-13023452D01*
X8117024Y-13013928D01*
X8421786Y-12832976D02*
X8326548Y-12832976D01*
X8317024Y-12928214D01*
X8326548Y-12918690D01*
X8345595Y-12909167D01*
X8393214Y-12909167D01*
X8412262Y-12918690D01*
X8421786Y-12928214D01*
X8431310Y-12947262D01*
X8431310Y-12994881D01*
X8421786Y-13013928D01*
X8412262Y-13023452D01*
X8393214Y-13032976D01*
X8345595Y-13032976D01*
X8326548Y-13023452D01*
X8317024Y-13013928D01*
X8602738Y-12899643D02*
X8602738Y-13032976D01*
X8555119Y-12823452D02*
X8507500Y-12966309D01*
X8631310Y-12966309D01*
X8697976Y-12832976D02*
X8697976Y-12871071D01*
X8774167Y-12832976D02*
X8774167Y-12871071D01*
X9069405Y-13109167D02*
X9059881Y-13099643D01*
X9040833Y-13071071D01*
X9031310Y-13052024D01*
X9021786Y-13023452D01*
X9012262Y-12975833D01*
X9012262Y-12937738D01*
X9021786Y-12890119D01*
X9031310Y-12861548D01*
X9040833Y-12842500D01*
X9059881Y-12813928D01*
X9069405Y-12804405D01*
X9136071Y-12852024D02*
X9145595Y-12842500D01*
X9164643Y-12832976D01*
X9212262Y-12832976D01*
X9231310Y-12842500D01*
X9240833Y-12852024D01*
X9250357Y-12871071D01*
X9250357Y-12890119D01*
X9240833Y-12918690D01*
X9126548Y-13032976D01*
X9250357Y-13032976D01*
X9488452Y-13032976D02*
X9488452Y-12832976D01*
X9574167Y-13032976D02*
X9574167Y-12928214D01*
X9564643Y-12909167D01*
X9545595Y-12899643D01*
X9517024Y-12899643D01*
X9497976Y-12909167D01*
X9488452Y-12918690D01*
X9697976Y-13032976D02*
X9678929Y-13023452D01*
X9669405Y-13013928D01*
X9659881Y-12994881D01*
X9659881Y-12937738D01*
X9669405Y-12918690D01*
X9678929Y-12909167D01*
X9697976Y-12899643D01*
X9726548Y-12899643D01*
X9745595Y-12909167D01*
X9755119Y-12918690D01*
X9764643Y-12937738D01*
X9764643Y-12994881D01*
X9755119Y-13013928D01*
X9745595Y-13023452D01*
X9726548Y-13032976D01*
X9697976Y-13032976D01*
X9878929Y-13032976D02*
X9859881Y-13023452D01*
X9850357Y-13004405D01*
X9850357Y-12832976D01*
X10031310Y-13023452D02*
X10012262Y-13032976D01*
X9974167Y-13032976D01*
X9955119Y-13023452D01*
X9945595Y-13004405D01*
X9945595Y-12928214D01*
X9955119Y-12909167D01*
X9974167Y-12899643D01*
X10012262Y-12899643D01*
X10031310Y-12909167D01*
X10040833Y-12928214D01*
X10040833Y-12947262D01*
X9945595Y-12966309D01*
X10117024Y-13023452D02*
X10136071Y-13032976D01*
X10174167Y-13032976D01*
X10193214Y-13023452D01*
X10202738Y-13004405D01*
X10202738Y-12994881D01*
X10193214Y-12975833D01*
X10174167Y-12966309D01*
X10145595Y-12966309D01*
X10126548Y-12956786D01*
X10117024Y-12937738D01*
X10117024Y-12928214D01*
X10126548Y-12909167D01*
X10145595Y-12899643D01*
X10174167Y-12899643D01*
X10193214Y-12909167D01*
X10269405Y-13109167D02*
X10278929Y-13099643D01*
X10297976Y-13071071D01*
X10307500Y-13052024D01*
X10317024Y-13023452D01*
X10326548Y-12975833D01*
X10326548Y-12937738D01*
X10317024Y-12890119D01*
X10307500Y-12861548D01*
X10297976Y-12842500D01*
X10278929Y-12813928D01*
X10269405Y-12804405D01*
X10631310Y-13109167D02*
X10621786Y-13099643D01*
X10602738Y-13071071D01*
X10593214Y-13052024D01*
X10583690Y-13023452D01*
X10574167Y-12975833D01*
X10574167Y-12937738D01*
X10583690Y-12890119D01*
X10593214Y-12861548D01*
X10602738Y-12842500D01*
X10621786Y-12813928D01*
X10631310Y-12804405D01*
X10707500Y-12899643D02*
X10707500Y-13032976D01*
X10707500Y-12918690D02*
X10717024Y-12909167D01*
X10736071Y-12899643D01*
X10764643Y-12899643D01*
X10783690Y-12909167D01*
X10793214Y-12928214D01*
X10793214Y-13032976D01*
X10917024Y-13032976D02*
X10897976Y-13023452D01*
X10888452Y-13013928D01*
X10878929Y-12994881D01*
X10878929Y-12937738D01*
X10888452Y-12918690D01*
X10897976Y-12909167D01*
X10917024Y-12899643D01*
X10945595Y-12899643D01*
X10964643Y-12909167D01*
X10974167Y-12918690D01*
X10983690Y-12937738D01*
X10983690Y-12994881D01*
X10974167Y-13013928D01*
X10964643Y-13023452D01*
X10945595Y-13032976D01*
X10917024Y-13032976D01*
X11040833Y-12899643D02*
X11117024Y-12899643D01*
X11069405Y-12832976D02*
X11069405Y-13004405D01*
X11078929Y-13023452D01*
X11097976Y-13032976D01*
X11117024Y-13032976D01*
X11336071Y-12899643D02*
X11336071Y-13099643D01*
X11336071Y-12909167D02*
X11355119Y-12899643D01*
X11393214Y-12899643D01*
X11412262Y-12909167D01*
X11421786Y-12918690D01*
X11431309Y-12937738D01*
X11431309Y-12994881D01*
X11421786Y-13013928D01*
X11412262Y-13023452D01*
X11393214Y-13032976D01*
X11355119Y-13032976D01*
X11336071Y-13023452D01*
X11545595Y-13032976D02*
X11526548Y-13023452D01*
X11517024Y-13004405D01*
X11517024Y-12832976D01*
X11707500Y-13032976D02*
X11707500Y-12928214D01*
X11697976Y-12909167D01*
X11678928Y-12899643D01*
X11640833Y-12899643D01*
X11621786Y-12909167D01*
X11707500Y-13023452D02*
X11688452Y-13032976D01*
X11640833Y-13032976D01*
X11621786Y-13023452D01*
X11612262Y-13004405D01*
X11612262Y-12985357D01*
X11621786Y-12966309D01*
X11640833Y-12956786D01*
X11688452Y-12956786D01*
X11707500Y-12947262D01*
X11774167Y-12899643D02*
X11850357Y-12899643D01*
X11802738Y-12832976D02*
X11802738Y-13004405D01*
X11812262Y-13023452D01*
X11831309Y-13032976D01*
X11850357Y-13032976D01*
X11993214Y-13023452D02*
X11974167Y-13032976D01*
X11936071Y-13032976D01*
X11917024Y-13023452D01*
X11907500Y-13004405D01*
X11907500Y-12928214D01*
X11917024Y-12909167D01*
X11936071Y-12899643D01*
X11974167Y-12899643D01*
X11993214Y-12909167D01*
X12002738Y-12928214D01*
X12002738Y-12947262D01*
X11907500Y-12966309D01*
X12174167Y-13032976D02*
X12174167Y-12832976D01*
X12174167Y-13023452D02*
X12155119Y-13032976D01*
X12117024Y-13032976D01*
X12097976Y-13023452D01*
X12088452Y-13013928D01*
X12078928Y-12994881D01*
X12078928Y-12937738D01*
X12088452Y-12918690D01*
X12097976Y-12909167D01*
X12117024Y-12899643D01*
X12155119Y-12899643D01*
X12174167Y-12909167D01*
X12250357Y-13109167D02*
X12259881Y-13099643D01*
X12278928Y-13071071D01*
X12288452Y-13052024D01*
X12297976Y-13023452D01*
X12307500Y-12975833D01*
X12307500Y-12937738D01*
X12297976Y-12890119D01*
X12288452Y-12861548D01*
X12278928Y-12842500D01*
X12259881Y-12813928D01*
X12250357Y-12804405D01*
X5497500Y-13206500D02*
G75*
G03*
X5497500Y-13206500I-100000J0D01*
G01*
X5840833Y-13163643D02*
X5840833Y-13296976D01*
X5793214Y-13087452D02*
X5745595Y-13230309D01*
X5869405Y-13230309D01*
X5945595Y-13277928D02*
X5955119Y-13287452D01*
X5945595Y-13296976D01*
X5936071Y-13287452D01*
X5945595Y-13277928D01*
X5945595Y-13296976D01*
X6078928Y-13096976D02*
X6097976Y-13096976D01*
X6117024Y-13106500D01*
X6126548Y-13116024D01*
X6136071Y-13135071D01*
X6145595Y-13173167D01*
X6145595Y-13220786D01*
X6136071Y-13258881D01*
X6126548Y-13277928D01*
X6117024Y-13287452D01*
X6097976Y-13296976D01*
X6078928Y-13296976D01*
X6059881Y-13287452D01*
X6050357Y-13277928D01*
X6040833Y-13258881D01*
X6031309Y-13220786D01*
X6031309Y-13173167D01*
X6040833Y-13135071D01*
X6050357Y-13116024D01*
X6059881Y-13106500D01*
X6078928Y-13096976D01*
X6269405Y-13096976D02*
X6288452Y-13096976D01*
X6307500Y-13106500D01*
X6317024Y-13116024D01*
X6326548Y-13135071D01*
X6336071Y-13173167D01*
X6336071Y-13220786D01*
X6326548Y-13258881D01*
X6317024Y-13277928D01*
X6307500Y-13287452D01*
X6288452Y-13296976D01*
X6269405Y-13296976D01*
X6250357Y-13287452D01*
X6240833Y-13277928D01*
X6231309Y-13258881D01*
X6221786Y-13220786D01*
X6221786Y-13173167D01*
X6231309Y-13135071D01*
X6240833Y-13116024D01*
X6250357Y-13106500D01*
X6269405Y-13096976D01*
X6459881Y-13096976D02*
X6478928Y-13096976D01*
X6497976Y-13106500D01*
X6507500Y-13116024D01*
X6517024Y-13135071D01*
X6526548Y-13173167D01*
X6526548Y-13220786D01*
X6517024Y-13258881D01*
X6507500Y-13277928D01*
X6497976Y-13287452D01*
X6478928Y-13296976D01*
X6459881Y-13296976D01*
X6440833Y-13287452D01*
X6431309Y-13277928D01*
X6421786Y-13258881D01*
X6412262Y-13220786D01*
X6412262Y-13173167D01*
X6421786Y-13135071D01*
X6431309Y-13116024D01*
X6440833Y-13106500D01*
X6459881Y-13096976D01*
X6612262Y-13296976D02*
X6612262Y-13163643D01*
X6612262Y-13182690D02*
X6621786Y-13173167D01*
X6640833Y-13163643D01*
X6669405Y-13163643D01*
X6688452Y-13173167D01*
X6697976Y-13192214D01*
X6697976Y-13296976D01*
X6697976Y-13192214D02*
X6707500Y-13173167D01*
X6726548Y-13163643D01*
X6755119Y-13163643D01*
X6774167Y-13173167D01*
X6783690Y-13192214D01*
X6783690Y-13296976D01*
X6878928Y-13296976D02*
X6878928Y-13163643D01*
X6878928Y-13182690D02*
X6888452Y-13173167D01*
X6907500Y-13163643D01*
X6936071Y-13163643D01*
X6955119Y-13173167D01*
X6964643Y-13192214D01*
X6964643Y-13296976D01*
X6964643Y-13192214D02*
X6974167Y-13173167D01*
X6993214Y-13163643D01*
X7021786Y-13163643D01*
X7040833Y-13173167D01*
X7050357Y-13192214D01*
X7050357Y-13296976D01*
X7440833Y-13087452D02*
X7269405Y-13344595D01*
X7697976Y-13096976D02*
X7717024Y-13096976D01*
X7736071Y-13106500D01*
X7745595Y-13116024D01*
X7755119Y-13135071D01*
X7764643Y-13173167D01*
X7764643Y-13220786D01*
X7755119Y-13258881D01*
X7745595Y-13277928D01*
X7736071Y-13287452D01*
X7717024Y-13296976D01*
X7697976Y-13296976D01*
X7678928Y-13287452D01*
X7669405Y-13277928D01*
X7659881Y-13258881D01*
X7650357Y-13220786D01*
X7650357Y-13173167D01*
X7659881Y-13135071D01*
X7669405Y-13116024D01*
X7678928Y-13106500D01*
X7697976Y-13096976D01*
X7850357Y-13277928D02*
X7859881Y-13287452D01*
X7850357Y-13296976D01*
X7840833Y-13287452D01*
X7850357Y-13277928D01*
X7850357Y-13296976D01*
X8050357Y-13296976D02*
X7936071Y-13296976D01*
X7993214Y-13296976D02*
X7993214Y-13096976D01*
X7974167Y-13125548D01*
X7955119Y-13144595D01*
X7936071Y-13154119D01*
X8231309Y-13096976D02*
X8136071Y-13096976D01*
X8126548Y-13192214D01*
X8136071Y-13182690D01*
X8155119Y-13173167D01*
X8202738Y-13173167D01*
X8221786Y-13182690D01*
X8231309Y-13192214D01*
X8240833Y-13211262D01*
X8240833Y-13258881D01*
X8231309Y-13277928D01*
X8221786Y-13287452D01*
X8202738Y-13296976D01*
X8155119Y-13296976D01*
X8136071Y-13287452D01*
X8126548Y-13277928D01*
X8307500Y-13096976D02*
X8440833Y-13096976D01*
X8355119Y-13296976D01*
X8612262Y-13096976D02*
X8517024Y-13096976D01*
X8507500Y-13192214D01*
X8517024Y-13182690D01*
X8536071Y-13173167D01*
X8583690Y-13173167D01*
X8602738Y-13182690D01*
X8612262Y-13192214D01*
X8621786Y-13211262D01*
X8621786Y-13258881D01*
X8612262Y-13277928D01*
X8602738Y-13287452D01*
X8583690Y-13296976D01*
X8536071Y-13296976D01*
X8517024Y-13287452D01*
X8507500Y-13277928D01*
X8697976Y-13096976D02*
X8697976Y-13135071D01*
X8774167Y-13096976D02*
X8774167Y-13135071D01*
X9069405Y-13373167D02*
X9059881Y-13363643D01*
X9040833Y-13335071D01*
X9031310Y-13316024D01*
X9021786Y-13287452D01*
X9012262Y-13239833D01*
X9012262Y-13201738D01*
X9021786Y-13154119D01*
X9031310Y-13125548D01*
X9040833Y-13106500D01*
X9059881Y-13077928D01*
X9069405Y-13068405D01*
X9136071Y-13116024D02*
X9145595Y-13106500D01*
X9164643Y-13096976D01*
X9212262Y-13096976D01*
X9231310Y-13106500D01*
X9240833Y-13116024D01*
X9250357Y-13135071D01*
X9250357Y-13154119D01*
X9240833Y-13182690D01*
X9126548Y-13296976D01*
X9250357Y-13296976D01*
X9488452Y-13296976D02*
X9488452Y-13096976D01*
X9574167Y-13296976D02*
X9574167Y-13192214D01*
X9564643Y-13173167D01*
X9545595Y-13163643D01*
X9517024Y-13163643D01*
X9497976Y-13173167D01*
X9488452Y-13182690D01*
X9697976Y-13296976D02*
X9678929Y-13287452D01*
X9669405Y-13277928D01*
X9659881Y-13258881D01*
X9659881Y-13201738D01*
X9669405Y-13182690D01*
X9678929Y-13173167D01*
X9697976Y-13163643D01*
X9726548Y-13163643D01*
X9745595Y-13173167D01*
X9755119Y-13182690D01*
X9764643Y-13201738D01*
X9764643Y-13258881D01*
X9755119Y-13277928D01*
X9745595Y-13287452D01*
X9726548Y-13296976D01*
X9697976Y-13296976D01*
X9878929Y-13296976D02*
X9859881Y-13287452D01*
X9850357Y-13268405D01*
X9850357Y-13096976D01*
X10031310Y-13287452D02*
X10012262Y-13296976D01*
X9974167Y-13296976D01*
X9955119Y-13287452D01*
X9945595Y-13268405D01*
X9945595Y-13192214D01*
X9955119Y-13173167D01*
X9974167Y-13163643D01*
X10012262Y-13163643D01*
X10031310Y-13173167D01*
X10040833Y-13192214D01*
X10040833Y-13211262D01*
X9945595Y-13230309D01*
X10117024Y-13287452D02*
X10136071Y-13296976D01*
X10174167Y-13296976D01*
X10193214Y-13287452D01*
X10202738Y-13268405D01*
X10202738Y-13258881D01*
X10193214Y-13239833D01*
X10174167Y-13230309D01*
X10145595Y-13230309D01*
X10126548Y-13220786D01*
X10117024Y-13201738D01*
X10117024Y-13192214D01*
X10126548Y-13173167D01*
X10145595Y-13163643D01*
X10174167Y-13163643D01*
X10193214Y-13173167D01*
X10269405Y-13373167D02*
X10278929Y-13363643D01*
X10297976Y-13335071D01*
X10307500Y-13316024D01*
X10317024Y-13287452D01*
X10326548Y-13239833D01*
X10326548Y-13201738D01*
X10317024Y-13154119D01*
X10307500Y-13125548D01*
X10297976Y-13106500D01*
X10278929Y-13077928D01*
X10269405Y-13068405D01*
X10631310Y-13373167D02*
X10621786Y-13363643D01*
X10602738Y-13335071D01*
X10593214Y-13316024D01*
X10583690Y-13287452D01*
X10574167Y-13239833D01*
X10574167Y-13201738D01*
X10583690Y-13154119D01*
X10593214Y-13125548D01*
X10602738Y-13106500D01*
X10621786Y-13077928D01*
X10631310Y-13068405D01*
X10707500Y-13163643D02*
X10707500Y-13296976D01*
X10707500Y-13182690D02*
X10717024Y-13173167D01*
X10736071Y-13163643D01*
X10764643Y-13163643D01*
X10783690Y-13173167D01*
X10793214Y-13192214D01*
X10793214Y-13296976D01*
X10917024Y-13296976D02*
X10897976Y-13287452D01*
X10888452Y-13277928D01*
X10878929Y-13258881D01*
X10878929Y-13201738D01*
X10888452Y-13182690D01*
X10897976Y-13173167D01*
X10917024Y-13163643D01*
X10945595Y-13163643D01*
X10964643Y-13173167D01*
X10974167Y-13182690D01*
X10983690Y-13201738D01*
X10983690Y-13258881D01*
X10974167Y-13277928D01*
X10964643Y-13287452D01*
X10945595Y-13296976D01*
X10917024Y-13296976D01*
X11040833Y-13163643D02*
X11117024Y-13163643D01*
X11069405Y-13096976D02*
X11069405Y-13268405D01*
X11078929Y-13287452D01*
X11097976Y-13296976D01*
X11117024Y-13296976D01*
X11336071Y-13163643D02*
X11336071Y-13363643D01*
X11336071Y-13173167D02*
X11355119Y-13163643D01*
X11393214Y-13163643D01*
X11412262Y-13173167D01*
X11421786Y-13182690D01*
X11431309Y-13201738D01*
X11431309Y-13258881D01*
X11421786Y-13277928D01*
X11412262Y-13287452D01*
X11393214Y-13296976D01*
X11355119Y-13296976D01*
X11336071Y-13287452D01*
X11545595Y-13296976D02*
X11526548Y-13287452D01*
X11517024Y-13268405D01*
X11517024Y-13096976D01*
X11707500Y-13296976D02*
X11707500Y-13192214D01*
X11697976Y-13173167D01*
X11678928Y-13163643D01*
X11640833Y-13163643D01*
X11621786Y-13173167D01*
X11707500Y-13287452D02*
X11688452Y-13296976D01*
X11640833Y-13296976D01*
X11621786Y-13287452D01*
X11612262Y-13268405D01*
X11612262Y-13249357D01*
X11621786Y-13230309D01*
X11640833Y-13220786D01*
X11688452Y-13220786D01*
X11707500Y-13211262D01*
X11774167Y-13163643D02*
X11850357Y-13163643D01*
X11802738Y-13096976D02*
X11802738Y-13268405D01*
X11812262Y-13287452D01*
X11831309Y-13296976D01*
X11850357Y-13296976D01*
X11993214Y-13287452D02*
X11974167Y-13296976D01*
X11936071Y-13296976D01*
X11917024Y-13287452D01*
X11907500Y-13268405D01*
X11907500Y-13192214D01*
X11917024Y-13173167D01*
X11936071Y-13163643D01*
X11974167Y-13163643D01*
X11993214Y-13173167D01*
X12002738Y-13192214D01*
X12002738Y-13211262D01*
X11907500Y-13230309D01*
X12174167Y-13296976D02*
X12174167Y-13096976D01*
X12174167Y-13287452D02*
X12155119Y-13296976D01*
X12117024Y-13296976D01*
X12097976Y-13287452D01*
X12088452Y-13277928D01*
X12078928Y-13258881D01*
X12078928Y-13201738D01*
X12088452Y-13182690D01*
X12097976Y-13173167D01*
X12117024Y-13163643D01*
X12155119Y-13163643D01*
X12174167Y-13173167D01*
X12250357Y-13373167D02*
X12259881Y-13363643D01*
X12278928Y-13335071D01*
X12288452Y-13316024D01*
X12297976Y-13287452D01*
X12307500Y-13239833D01*
X12307500Y-13201738D01*
X12297976Y-13154119D01*
X12288452Y-13125548D01*
X12278928Y-13106500D01*
X12259881Y-13077928D01*
X12250357Y-13068405D01*
X5397500Y-13426500D02*
X5397500Y-13626500D01*
X5297500Y-13526500D02*
X5497500Y-13526500D01*
X5840833Y-13416976D02*
X5802738Y-13416976D01*
X5783690Y-13426500D01*
X5774167Y-13436024D01*
X5755119Y-13464595D01*
X5745595Y-13502690D01*
X5745595Y-13578881D01*
X5755119Y-13597928D01*
X5764643Y-13607452D01*
X5783690Y-13616976D01*
X5821786Y-13616976D01*
X5840833Y-13607452D01*
X5850357Y-13597928D01*
X5859881Y-13578881D01*
X5859881Y-13531262D01*
X5850357Y-13512214D01*
X5840833Y-13502690D01*
X5821786Y-13493167D01*
X5783690Y-13493167D01*
X5764643Y-13502690D01*
X5755119Y-13512214D01*
X5745595Y-13531262D01*
X5945595Y-13597928D02*
X5955119Y-13607452D01*
X5945595Y-13616976D01*
X5936071Y-13607452D01*
X5945595Y-13597928D01*
X5945595Y-13616976D01*
X6136071Y-13416976D02*
X6040833Y-13416976D01*
X6031309Y-13512214D01*
X6040833Y-13502690D01*
X6059881Y-13493167D01*
X6107500Y-13493167D01*
X6126548Y-13502690D01*
X6136071Y-13512214D01*
X6145595Y-13531262D01*
X6145595Y-13578881D01*
X6136071Y-13597928D01*
X6126548Y-13607452D01*
X6107500Y-13616976D01*
X6059881Y-13616976D01*
X6040833Y-13607452D01*
X6031309Y-13597928D01*
X6269405Y-13416976D02*
X6288452Y-13416976D01*
X6307500Y-13426500D01*
X6317024Y-13436024D01*
X6326548Y-13455071D01*
X6336071Y-13493167D01*
X6336071Y-13540786D01*
X6326548Y-13578881D01*
X6317024Y-13597928D01*
X6307500Y-13607452D01*
X6288452Y-13616976D01*
X6269405Y-13616976D01*
X6250357Y-13607452D01*
X6240833Y-13597928D01*
X6231309Y-13578881D01*
X6221786Y-13540786D01*
X6221786Y-13493167D01*
X6231309Y-13455071D01*
X6240833Y-13436024D01*
X6250357Y-13426500D01*
X6269405Y-13416976D01*
X6459881Y-13416976D02*
X6478928Y-13416976D01*
X6497976Y-13426500D01*
X6507500Y-13436024D01*
X6517024Y-13455071D01*
X6526548Y-13493167D01*
X6526548Y-13540786D01*
X6517024Y-13578881D01*
X6507500Y-13597928D01*
X6497976Y-13607452D01*
X6478928Y-13616976D01*
X6459881Y-13616976D01*
X6440833Y-13607452D01*
X6431309Y-13597928D01*
X6421786Y-13578881D01*
X6412262Y-13540786D01*
X6412262Y-13493167D01*
X6421786Y-13455071D01*
X6431309Y-13436024D01*
X6440833Y-13426500D01*
X6459881Y-13416976D01*
X6612262Y-13616976D02*
X6612262Y-13483643D01*
X6612262Y-13502690D02*
X6621786Y-13493167D01*
X6640833Y-13483643D01*
X6669405Y-13483643D01*
X6688452Y-13493167D01*
X6697976Y-13512214D01*
X6697976Y-13616976D01*
X6697976Y-13512214D02*
X6707500Y-13493167D01*
X6726548Y-13483643D01*
X6755119Y-13483643D01*
X6774167Y-13493167D01*
X6783690Y-13512214D01*
X6783690Y-13616976D01*
X6878928Y-13616976D02*
X6878928Y-13483643D01*
X6878928Y-13502690D02*
X6888452Y-13493167D01*
X6907500Y-13483643D01*
X6936071Y-13483643D01*
X6955119Y-13493167D01*
X6964643Y-13512214D01*
X6964643Y-13616976D01*
X6964643Y-13512214D02*
X6974167Y-13493167D01*
X6993214Y-13483643D01*
X7021786Y-13483643D01*
X7040833Y-13493167D01*
X7050357Y-13512214D01*
X7050357Y-13616976D01*
X7440833Y-13407452D02*
X7269405Y-13664595D01*
X7697976Y-13416976D02*
X7717024Y-13416976D01*
X7736071Y-13426500D01*
X7745595Y-13436024D01*
X7755119Y-13455071D01*
X7764643Y-13493167D01*
X7764643Y-13540786D01*
X7755119Y-13578881D01*
X7745595Y-13597928D01*
X7736071Y-13607452D01*
X7717024Y-13616976D01*
X7697976Y-13616976D01*
X7678928Y-13607452D01*
X7669405Y-13597928D01*
X7659881Y-13578881D01*
X7650357Y-13540786D01*
X7650357Y-13493167D01*
X7659881Y-13455071D01*
X7669405Y-13436024D01*
X7678928Y-13426500D01*
X7697976Y-13416976D01*
X7850357Y-13597928D02*
X7859881Y-13607452D01*
X7850357Y-13616976D01*
X7840833Y-13607452D01*
X7850357Y-13597928D01*
X7850357Y-13616976D01*
X7936071Y-13436024D02*
X7945595Y-13426500D01*
X7964643Y-13416976D01*
X8012262Y-13416976D01*
X8031309Y-13426500D01*
X8040833Y-13436024D01*
X8050357Y-13455071D01*
X8050357Y-13474119D01*
X8040833Y-13502690D01*
X7926548Y-13616976D01*
X8050357Y-13616976D01*
X8231309Y-13416976D02*
X8136071Y-13416976D01*
X8126548Y-13512214D01*
X8136071Y-13502690D01*
X8155119Y-13493167D01*
X8202738Y-13493167D01*
X8221786Y-13502690D01*
X8231309Y-13512214D01*
X8240833Y-13531262D01*
X8240833Y-13578881D01*
X8231309Y-13597928D01*
X8221786Y-13607452D01*
X8202738Y-13616976D01*
X8155119Y-13616976D01*
X8136071Y-13607452D01*
X8126548Y-13597928D01*
X8421786Y-13416976D02*
X8326548Y-13416976D01*
X8317024Y-13512214D01*
X8326548Y-13502690D01*
X8345595Y-13493167D01*
X8393214Y-13493167D01*
X8412262Y-13502690D01*
X8421786Y-13512214D01*
X8431310Y-13531262D01*
X8431310Y-13578881D01*
X8421786Y-13597928D01*
X8412262Y-13607452D01*
X8393214Y-13616976D01*
X8345595Y-13616976D01*
X8326548Y-13607452D01*
X8317024Y-13597928D01*
X8526548Y-13616976D02*
X8564643Y-13616976D01*
X8583690Y-13607452D01*
X8593214Y-13597928D01*
X8612262Y-13569357D01*
X8621786Y-13531262D01*
X8621786Y-13455071D01*
X8612262Y-13436024D01*
X8602738Y-13426500D01*
X8583690Y-13416976D01*
X8545595Y-13416976D01*
X8526548Y-13426500D01*
X8517024Y-13436024D01*
X8507500Y-13455071D01*
X8507500Y-13502690D01*
X8517024Y-13521738D01*
X8526548Y-13531262D01*
X8545595Y-13540786D01*
X8583690Y-13540786D01*
X8602738Y-13531262D01*
X8612262Y-13521738D01*
X8621786Y-13502690D01*
X8697976Y-13416976D02*
X8697976Y-13455071D01*
X8774167Y-13416976D02*
X8774167Y-13455071D01*
X9069405Y-13693167D02*
X9059881Y-13683643D01*
X9040833Y-13655071D01*
X9031310Y-13636024D01*
X9021786Y-13607452D01*
X9012262Y-13559833D01*
X9012262Y-13521738D01*
X9021786Y-13474119D01*
X9031310Y-13445548D01*
X9040833Y-13426500D01*
X9059881Y-13397928D01*
X9069405Y-13388405D01*
X9250357Y-13616976D02*
X9136071Y-13616976D01*
X9193214Y-13616976D02*
X9193214Y-13416976D01*
X9174167Y-13445548D01*
X9155119Y-13464595D01*
X9136071Y-13474119D01*
X9488452Y-13616976D02*
X9488452Y-13416976D01*
X9574167Y-13616976D02*
X9574167Y-13512214D01*
X9564643Y-13493167D01*
X9545595Y-13483643D01*
X9517024Y-13483643D01*
X9497976Y-13493167D01*
X9488452Y-13502690D01*
X9697976Y-13616976D02*
X9678929Y-13607452D01*
X9669405Y-13597928D01*
X9659881Y-13578881D01*
X9659881Y-13521738D01*
X9669405Y-13502690D01*
X9678929Y-13493167D01*
X9697976Y-13483643D01*
X9726548Y-13483643D01*
X9745595Y-13493167D01*
X9755119Y-13502690D01*
X9764643Y-13521738D01*
X9764643Y-13578881D01*
X9755119Y-13597928D01*
X9745595Y-13607452D01*
X9726548Y-13616976D01*
X9697976Y-13616976D01*
X9878929Y-13616976D02*
X9859881Y-13607452D01*
X9850357Y-13588405D01*
X9850357Y-13416976D01*
X10031310Y-13607452D02*
X10012262Y-13616976D01*
X9974167Y-13616976D01*
X9955119Y-13607452D01*
X9945595Y-13588405D01*
X9945595Y-13512214D01*
X9955119Y-13493167D01*
X9974167Y-13483643D01*
X10012262Y-13483643D01*
X10031310Y-13493167D01*
X10040833Y-13512214D01*
X10040833Y-13531262D01*
X9945595Y-13550309D01*
X10107500Y-13693167D02*
X10117024Y-13683643D01*
X10136071Y-13655071D01*
X10145595Y-13636024D01*
X10155119Y-13607452D01*
X10164643Y-13559833D01*
X10164643Y-13521738D01*
X10155119Y-13474119D01*
X10145595Y-13445548D01*
X10136071Y-13426500D01*
X10117024Y-13397928D01*
X10107500Y-13388405D01*
X10469405Y-13693167D02*
X10459881Y-13683643D01*
X10440833Y-13655071D01*
X10431310Y-13636024D01*
X10421786Y-13607452D01*
X10412262Y-13559833D01*
X10412262Y-13521738D01*
X10421786Y-13474119D01*
X10431310Y-13445548D01*
X10440833Y-13426500D01*
X10459881Y-13397928D01*
X10469405Y-13388405D01*
X10545595Y-13483643D02*
X10545595Y-13616976D01*
X10545595Y-13502690D02*
X10555119Y-13493167D01*
X10574167Y-13483643D01*
X10602738Y-13483643D01*
X10621786Y-13493167D01*
X10631310Y-13512214D01*
X10631310Y-13616976D01*
X10755119Y-13616976D02*
X10736071Y-13607452D01*
X10726548Y-13597928D01*
X10717024Y-13578881D01*
X10717024Y-13521738D01*
X10726548Y-13502690D01*
X10736071Y-13493167D01*
X10755119Y-13483643D01*
X10783690Y-13483643D01*
X10802738Y-13493167D01*
X10812262Y-13502690D01*
X10821786Y-13521738D01*
X10821786Y-13578881D01*
X10812262Y-13597928D01*
X10802738Y-13607452D01*
X10783690Y-13616976D01*
X10755119Y-13616976D01*
X10878929Y-13483643D02*
X10955119Y-13483643D01*
X10907500Y-13416976D02*
X10907500Y-13588405D01*
X10917024Y-13607452D01*
X10936071Y-13616976D01*
X10955119Y-13616976D01*
X11174167Y-13483643D02*
X11174167Y-13683643D01*
X11174167Y-13493167D02*
X11193214Y-13483643D01*
X11231309Y-13483643D01*
X11250357Y-13493167D01*
X11259881Y-13502690D01*
X11269405Y-13521738D01*
X11269405Y-13578881D01*
X11259881Y-13597928D01*
X11250357Y-13607452D01*
X11231309Y-13616976D01*
X11193214Y-13616976D01*
X11174167Y-13607452D01*
X11383690Y-13616976D02*
X11364643Y-13607452D01*
X11355119Y-13588405D01*
X11355119Y-13416976D01*
X11545595Y-13616976D02*
X11545595Y-13512214D01*
X11536071Y-13493167D01*
X11517024Y-13483643D01*
X11478928Y-13483643D01*
X11459881Y-13493167D01*
X11545595Y-13607452D02*
X11526548Y-13616976D01*
X11478928Y-13616976D01*
X11459881Y-13607452D01*
X11450357Y-13588405D01*
X11450357Y-13569357D01*
X11459881Y-13550309D01*
X11478928Y-13540786D01*
X11526548Y-13540786D01*
X11545595Y-13531262D01*
X11612262Y-13483643D02*
X11688452Y-13483643D01*
X11640833Y-13416976D02*
X11640833Y-13588405D01*
X11650357Y-13607452D01*
X11669405Y-13616976D01*
X11688452Y-13616976D01*
X11831309Y-13607452D02*
X11812262Y-13616976D01*
X11774167Y-13616976D01*
X11755119Y-13607452D01*
X11745595Y-13588405D01*
X11745595Y-13512214D01*
X11755119Y-13493167D01*
X11774167Y-13483643D01*
X11812262Y-13483643D01*
X11831309Y-13493167D01*
X11840833Y-13512214D01*
X11840833Y-13531262D01*
X11745595Y-13550309D01*
X12012262Y-13616976D02*
X12012262Y-13416976D01*
X12012262Y-13607452D02*
X11993214Y-13616976D01*
X11955119Y-13616976D01*
X11936071Y-13607452D01*
X11926548Y-13597928D01*
X11917024Y-13578881D01*
X11917024Y-13521738D01*
X11926548Y-13502690D01*
X11936071Y-13493167D01*
X11955119Y-13483643D01*
X11993214Y-13483643D01*
X12012262Y-13493167D01*
X12088452Y-13693167D02*
X12097976Y-13683643D01*
X12117024Y-13655071D01*
X12126548Y-13636024D01*
X12136071Y-13607452D01*
X12145595Y-13559833D01*
X12145595Y-13521738D01*
X12136071Y-13474119D01*
X12126548Y-13445548D01*
X12117024Y-13426500D01*
X12097976Y-13397928D01*
X12088452Y-13388405D01*
M02*
