G04 #@! TF.GenerationSoftware,KiCad,Pcbnew,6.0.1-79c1e3a40b~116~ubuntu21.04.1*
G04 #@! TF.CreationDate,2022-02-15T16:14:12-05:00*
G04 #@! TF.ProjectId,ttc_sign,7474635f-7369-4676-9e2e-6b696361645f,rev?*
G04 #@! TF.SameCoordinates,Original*
G04 #@! TF.FileFunction,Copper,L2,Bot*
G04 #@! TF.FilePolarity,Positive*
%FSLAX46Y46*%
G04 Gerber Fmt 4.6, Leading zero omitted, Abs format (unit mm)*
G04 Created by KiCad (PCBNEW 6.0.1-79c1e3a40b~116~ubuntu21.04.1) date 2022-02-15 16:14:12*
%MOMM*%
%LPD*%
G01*
G04 APERTURE LIST*
G04 #@! TA.AperFunction,ComponentPad*
%ADD10C,1.524000*%
G04 #@! TD*
G04 #@! TA.AperFunction,ComponentPad*
%ADD11R,1.524000X1.524000*%
G04 #@! TD*
G04 #@! TA.AperFunction,SMDPad,CuDef*
%ADD12R,3.150000X1.000000*%
G04 #@! TD*
G04 #@! TA.AperFunction,ViaPad*
%ADD13C,0.800000*%
G04 #@! TD*
G04 #@! TA.AperFunction,Conductor*
%ADD14C,0.250000*%
G04 #@! TD*
G04 #@! TA.AperFunction,Conductor*
%ADD15C,0.500000*%
G04 #@! TD*
G04 APERTURE END LIST*
D10*
G04 #@! TO.P,U1,12,CC1*
G04 #@! TO.N,/C_{1}*
X81650000Y-47500000D03*
G04 #@! TO.P,U1,11,A*
G04 #@! TO.N,/A*
X84190000Y-47500000D03*
G04 #@! TO.P,U1,10,F*
G04 #@! TO.N,/F*
X86730000Y-47500000D03*
G04 #@! TO.P,U1,9,CC2*
G04 #@! TO.N,/C_{2}*
X89270000Y-47500000D03*
G04 #@! TO.P,U1,8,CC3*
G04 #@! TO.N,/C_{3}*
X91810000Y-47500000D03*
G04 #@! TO.P,U1,7,B*
G04 #@! TO.N,/B*
X94350000Y-47500000D03*
G04 #@! TO.P,U1,6,CC4*
G04 #@! TO.N,/C_{4}*
X94350000Y-69500000D03*
G04 #@! TO.P,U1,5,G*
G04 #@! TO.N,/G*
X91810000Y-69500000D03*
G04 #@! TO.P,U1,4,C*
G04 #@! TO.N,/C*
X89270000Y-69500000D03*
G04 #@! TO.P,U1,3,DPX*
G04 #@! TO.N,/DP*
X86730000Y-69500000D03*
G04 #@! TO.P,U1,2,D*
G04 #@! TO.N,/D*
X84190000Y-69500000D03*
D11*
G04 #@! TO.P,U1,1,E*
G04 #@! TO.N,/E*
X81650000Y-69500000D03*
G04 #@! TD*
D12*
G04 #@! TO.P,J2,6,Pin_6*
G04 #@! TO.N,/RX*
X85475000Y-108740000D03*
G04 #@! TO.P,J2,5,Pin_5*
G04 #@! TO.N,unconnected-(J2-Pad5)*
X90525000Y-108740000D03*
G04 #@! TO.P,J2,4,Pin_4*
G04 #@! TO.N,/TX*
X85475000Y-106200000D03*
G04 #@! TO.P,J2,3,Pin_3*
G04 #@! TO.N,/RTS*
X90525000Y-106200000D03*
G04 #@! TO.P,J2,2,Pin_2*
G04 #@! TO.N,/DTR*
X85475000Y-103660000D03*
G04 #@! TO.P,J2,1,Pin_1*
G04 #@! TO.N,GND*
X90525000Y-103660000D03*
G04 #@! TD*
D13*
G04 #@! TO.N,/EN*
X104600000Y-105600000D03*
X103750000Y-110050000D03*
X115200000Y-97600000D03*
G04 #@! TO.N,GND*
X109400000Y-113600000D03*
X111450000Y-108900000D03*
X90525000Y-103660000D03*
G04 #@! TO.N,/BUT_{1}*
X84285000Y-96995000D03*
X66350000Y-76650000D03*
X60150000Y-76650000D03*
G04 #@! TO.N,+3V3*
X71800000Y-119600000D03*
X71945000Y-112717500D03*
X76200000Y-111000000D03*
X98500000Y-113235000D03*
G04 #@! TO.N,+5V*
X71200000Y-105200000D03*
X75250000Y-107200000D03*
X116050000Y-108900000D03*
X73215000Y-119642500D03*
G04 #@! TO.N,/RX*
X81500000Y-109425000D03*
G04 #@! TO.N,/TX*
X81500000Y-110695000D03*
G04 #@! TO.N,/RTS*
X103650000Y-103600000D03*
G04 #@! TO.N,/DTR*
X105600000Y-100150000D03*
G04 #@! TO.N,/BOOT*
X104600000Y-96400000D03*
X81500000Y-97995000D03*
G04 #@! TO.N,/DIGIT_{1}*
X60600000Y-98400000D03*
X81500000Y-99265000D03*
G04 #@! TO.N,/DIGIT_{2}*
X60449999Y-105600000D03*
X81500000Y-108155000D03*
G04 #@! TO.N,/DIGIT_{3}*
X60600000Y-112400000D03*
X81500000Y-111965000D03*
G04 #@! TO.N,/DIGIT_{4}*
X60600000Y-119400000D03*
X81500000Y-113235000D03*
G04 #@! TO.N,/OE_{5V}*
X69400000Y-117800000D03*
X69400000Y-109400000D03*
G04 #@! TO.N,/RCLK_{5V}*
X68200000Y-109400000D03*
X68200000Y-117800000D03*
G04 #@! TD*
D14*
G04 #@! TO.N,/EN*
X103750000Y-106450000D02*
X104600000Y-105600000D01*
X103750000Y-110050000D02*
X103750000Y-106450000D01*
X107200000Y-105600000D02*
X115200000Y-97600000D01*
X104600000Y-105600000D02*
X107200000Y-105600000D01*
G04 #@! TO.N,GND*
X111450000Y-111550000D02*
X111450000Y-108900000D01*
X109400000Y-113600000D02*
X111450000Y-111550000D01*
G04 #@! TO.N,/BUT_{1}*
X66350000Y-76650000D02*
X60150000Y-76650000D01*
X66350000Y-79060000D02*
X84285000Y-96995000D01*
X66350000Y-76650000D02*
X66350000Y-79060000D01*
G04 #@! TO.N,+3V3*
X71800000Y-112862500D02*
X71945000Y-112717500D01*
X71800000Y-119600000D02*
X71800000Y-112862500D01*
X96935000Y-114800000D02*
X98500000Y-113235000D01*
X77000000Y-114800000D02*
X96935000Y-114800000D01*
X76600000Y-114400000D02*
X77000000Y-114800000D01*
X76600000Y-111400000D02*
X76600000Y-114400000D01*
X76200000Y-111000000D02*
X76600000Y-111400000D01*
G04 #@! TO.N,+5V*
X73250000Y-105200000D02*
X75250000Y-107200000D01*
X71200000Y-105200000D02*
X73250000Y-105200000D01*
D15*
X116050000Y-108900000D02*
X109550000Y-115400000D01*
X75250000Y-115075998D02*
X75250000Y-107200000D01*
X75574002Y-115400000D02*
X75250000Y-115075998D01*
X109550000Y-115400000D02*
X75574002Y-115400000D01*
D14*
X73215000Y-117759002D02*
X73215000Y-119642500D01*
X75574002Y-115400000D02*
X73215000Y-117759002D01*
G04 #@! TO.N,/RX*
X82185000Y-108740000D02*
X81500000Y-109425000D01*
X85475000Y-108740000D02*
X82185000Y-108740000D01*
G04 #@! TO.N,/TX*
X85475000Y-106200000D02*
X86200000Y-106200000D01*
X86180002Y-110695000D02*
X81500000Y-110695000D01*
X87375001Y-109500001D02*
X86180002Y-110695000D01*
X87375001Y-107375001D02*
X87375001Y-109500001D01*
X86200000Y-106200000D02*
X87375001Y-107375001D01*
G04 #@! TO.N,/RTS*
X101050000Y-106200000D02*
X103650000Y-103600000D01*
X90525000Y-106200000D02*
X101050000Y-106200000D01*
G04 #@! TO.N,/DTR*
X85475000Y-103660000D02*
X85475000Y-103125000D01*
X88450000Y-100150000D02*
X105600000Y-100150000D01*
X85475000Y-103125000D02*
X88450000Y-100150000D01*
G04 #@! TO.N,/BOOT*
X103005000Y-97995000D02*
X81500000Y-97995000D01*
X104600000Y-96400000D02*
X103005000Y-97995000D01*
G04 #@! TO.N,/DIGIT_{1}*
X61465000Y-99265000D02*
X81500000Y-99265000D01*
X60600000Y-98400000D02*
X61465000Y-99265000D01*
G04 #@! TO.N,/DIGIT_{2}*
X75745000Y-102400000D02*
X81500000Y-108155000D01*
X60449999Y-105600000D02*
X63649999Y-102400000D01*
X63649999Y-102400000D02*
X75745000Y-102400000D01*
G04 #@! TO.N,/DIGIT_{3}*
X79965000Y-111965000D02*
X81500000Y-111965000D01*
X79400000Y-111400000D02*
X79965000Y-111965000D01*
X79400000Y-107400000D02*
X79400000Y-111400000D01*
X75200000Y-103200000D02*
X79400000Y-107400000D01*
X61800000Y-111200000D02*
X61800000Y-105400000D01*
X64000000Y-103200000D02*
X75200000Y-103200000D01*
X61800000Y-105400000D02*
X64000000Y-103200000D01*
X60600000Y-112400000D02*
X61800000Y-111200000D01*
G04 #@! TO.N,/DIGIT_{4}*
X78400000Y-112200000D02*
X79435000Y-113235000D01*
X79435000Y-113235000D02*
X81500000Y-113235000D01*
X74200000Y-104200000D02*
X78400000Y-108400000D01*
X78400000Y-108400000D02*
X78400000Y-112200000D01*
X64200000Y-104200000D02*
X74200000Y-104200000D01*
X62600000Y-105800000D02*
X64200000Y-104200000D01*
X62600000Y-117400000D02*
X62600000Y-105800000D01*
X60600000Y-119400000D02*
X62600000Y-117400000D01*
G04 #@! TO.N,/OE_{5V}*
X69400000Y-117800000D02*
X69400000Y-109400000D01*
G04 #@! TO.N,/RCLK_{5V}*
X68200000Y-109400000D02*
X68200000Y-117800000D01*
G04 #@! TD*
M02*
