G04 #@! TF.GenerationSoftware,KiCad,Pcbnew,6.0.1-79c1e3a40b~116~ubuntu21.04.1*
G04 #@! TF.CreationDate,2022-02-15T16:14:13-05:00*
G04 #@! TF.ProjectId,ttc_sign,7474635f-7369-4676-9e2e-6b696361645f,rev?*
G04 #@! TF.SameCoordinates,Original*
G04 #@! TF.FileFunction,Soldermask,Top*
G04 #@! TF.FilePolarity,Negative*
%FSLAX46Y46*%
G04 Gerber Fmt 4.6, Leading zero omitted, Abs format (unit mm)*
G04 Created by KiCad (PCBNEW 6.0.1-79c1e3a40b~116~ubuntu21.04.1) date 2022-02-15 16:14:13*
%MOMM*%
%LPD*%
G01*
G04 APERTURE LIST*
G04 Aperture macros list*
%AMRoundRect*
0 Rectangle with rounded corners*
0 $1 Rounding radius*
0 $2 $3 $4 $5 $6 $7 $8 $9 X,Y pos of 4 corners*
0 Add a 4 corners polygon primitive as box body*
4,1,4,$2,$3,$4,$5,$6,$7,$8,$9,$2,$3,0*
0 Add four circle primitives for the rounded corners*
1,1,$1+$1,$2,$3*
1,1,$1+$1,$4,$5*
1,1,$1+$1,$6,$7*
1,1,$1+$1,$8,$9*
0 Add four rect primitives between the rounded corners*
20,1,$1+$1,$2,$3,$4,$5,0*
20,1,$1+$1,$4,$5,$6,$7,0*
20,1,$1+$1,$6,$7,$8,$9,0*
20,1,$1+$1,$8,$9,$2,$3,0*%
G04 Aperture macros list end*
%ADD10R,1.000000X1.500000*%
%ADD11C,4.000000*%
%ADD12C,6.500000*%
%ADD13RoundRect,0.150000X-0.150000X0.850000X-0.150000X-0.850000X0.150000X-0.850000X0.150000X0.850000X0*%
%ADD14R,0.800000X0.900000*%
%ADD15C,1.524000*%
%ADD16R,1.524000X1.524000*%
%ADD17R,1.500000X2.000000*%
%ADD18R,3.800000X2.000000*%
%ADD19RoundRect,0.150000X-0.150000X0.837500X-0.150000X-0.837500X0.150000X-0.837500X0.150000X0.837500X0*%
%ADD20R,2.000000X0.900000*%
%ADD21R,0.900000X2.000000*%
%ADD22R,5.000000X5.000000*%
%ADD23R,1.800000X1.100000*%
%ADD24R,0.400000X0.900000*%
%ADD25RoundRect,0.200000X-0.275000X0.200000X-0.275000X-0.200000X0.275000X-0.200000X0.275000X0.200000X0*%
%ADD26RoundRect,0.200000X0.275000X-0.200000X0.275000X0.200000X-0.275000X0.200000X-0.275000X-0.200000X0*%
%ADD27R,0.900000X0.800000*%
%ADD28C,0.900000*%
%ADD29R,0.500000X2.500000*%
%ADD30R,2.000000X2.500000*%
%ADD31RoundRect,0.225000X-0.225000X-0.250000X0.225000X-0.250000X0.225000X0.250000X-0.225000X0.250000X0*%
%ADD32RoundRect,0.250000X0.475000X-0.250000X0.475000X0.250000X-0.475000X0.250000X-0.475000X-0.250000X0*%
%ADD33RoundRect,0.225000X0.250000X-0.225000X0.250000X0.225000X-0.250000X0.225000X-0.250000X-0.225000X0*%
%ADD34RoundRect,0.225000X-0.250000X0.225000X-0.250000X-0.225000X0.250000X-0.225000X0.250000X0.225000X0*%
G04 APERTURE END LIST*
D10*
G04 #@! TO.C,JP2*
X117800000Y-97600000D03*
X116500000Y-97600000D03*
X115200000Y-97600000D03*
G04 #@! TD*
G04 #@! TO.C,JP1*
X112400000Y-97600000D03*
X111100000Y-97600000D03*
X109800000Y-97600000D03*
G04 #@! TD*
D11*
G04 #@! TO.C,H3*
X115500000Y-39000000D03*
G04 #@! TD*
D12*
G04 #@! TO.C,H2*
X87630000Y-39116000D03*
G04 #@! TD*
D11*
G04 #@! TO.C,H1*
X60500000Y-39000000D03*
G04 #@! TD*
D13*
G04 #@! TO.C,U3*
X73215000Y-107250000D03*
X71945000Y-107250000D03*
X70675000Y-107250000D03*
X69405000Y-107250000D03*
X68135000Y-107250000D03*
X66865000Y-107250000D03*
X65595000Y-107250000D03*
X64325000Y-107250000D03*
X64325000Y-102250000D03*
X65595000Y-102250000D03*
X66865000Y-102250000D03*
X68135000Y-102250000D03*
X69405000Y-102250000D03*
X70675000Y-102250000D03*
X71945000Y-102250000D03*
X73215000Y-102250000D03*
G04 #@! TD*
D14*
G04 #@! TO.C,Q6*
X104600000Y-96400000D03*
X105550000Y-98400000D03*
X103650000Y-98400000D03*
G04 #@! TD*
G04 #@! TO.C,Q5*
X104600000Y-105600000D03*
X103650000Y-103600000D03*
X105550000Y-103600000D03*
G04 #@! TD*
D15*
G04 #@! TO.C,U1*
X81650000Y-47500000D03*
X84190000Y-47500000D03*
X86730000Y-47500000D03*
X89270000Y-47500000D03*
X91810000Y-47500000D03*
X94350000Y-47500000D03*
X94350000Y-69500000D03*
X91810000Y-69500000D03*
X89270000Y-69500000D03*
X86730000Y-69500000D03*
X84190000Y-69500000D03*
D16*
X81650000Y-69500000D03*
G04 #@! TD*
D17*
G04 #@! TO.C,U5*
X111450000Y-108900000D03*
X116050000Y-108900000D03*
X113750000Y-108900000D03*
D18*
X113750000Y-102600000D03*
G04 #@! TD*
D19*
G04 #@! TO.C,U2*
X73215000Y-119642500D03*
X71945000Y-119642500D03*
X70675000Y-119642500D03*
X69405000Y-119642500D03*
X68135000Y-119642500D03*
X66865000Y-119642500D03*
X65595000Y-119642500D03*
X64325000Y-119642500D03*
X64325000Y-112717500D03*
X65595000Y-112717500D03*
X66865000Y-112717500D03*
X68135000Y-112717500D03*
X69405000Y-112717500D03*
X70675000Y-112717500D03*
X71945000Y-112717500D03*
X73215000Y-112717500D03*
G04 #@! TD*
D20*
G04 #@! TO.C,U4*
X81500000Y-114505000D03*
X81500000Y-113235000D03*
X81500000Y-111965000D03*
X81500000Y-110695000D03*
X81500000Y-109425000D03*
X81500000Y-108155000D03*
X81500000Y-106885000D03*
X81500000Y-105615000D03*
X81500000Y-104345000D03*
X81500000Y-103075000D03*
X81500000Y-101805000D03*
X81500000Y-100535000D03*
X81500000Y-99265000D03*
X81500000Y-97995000D03*
D21*
X84285000Y-96995000D03*
X85555000Y-96995000D03*
X86825000Y-96995000D03*
X88095000Y-96995000D03*
X89365000Y-96995000D03*
X90635000Y-96995000D03*
X91905000Y-96995000D03*
X93175000Y-96995000D03*
X94445000Y-96995000D03*
X95715000Y-96995000D03*
D20*
X98500000Y-97995000D03*
X98500000Y-99265000D03*
X98500000Y-100535000D03*
X98500000Y-101805000D03*
X98500000Y-103075000D03*
X98500000Y-104345000D03*
X98500000Y-105615000D03*
X98500000Y-106885000D03*
X98500000Y-108155000D03*
X98500000Y-109425000D03*
X98500000Y-110695000D03*
X98500000Y-111965000D03*
X98500000Y-113235000D03*
X98500000Y-114505000D03*
D22*
X91000000Y-107005000D03*
G04 #@! TD*
D23*
G04 #@! TO.C,SW4*
X109650000Y-76650000D03*
X115850000Y-76650000D03*
X109650000Y-80350000D03*
X115850000Y-80350000D03*
G04 #@! TD*
G04 #@! TO.C,SW3*
X93150000Y-76650000D03*
X99350000Y-76650000D03*
X93150000Y-80350000D03*
X99350000Y-80350000D03*
G04 #@! TD*
G04 #@! TO.C,SW2*
X76650000Y-76650000D03*
X82850000Y-76650000D03*
X76650000Y-80350000D03*
X82850000Y-80350000D03*
G04 #@! TD*
G04 #@! TO.C,SW1*
X60150000Y-76650000D03*
X66350000Y-76650000D03*
X60150000Y-80350000D03*
X66350000Y-80350000D03*
G04 #@! TD*
D24*
G04 #@! TO.C,RN2*
X64268000Y-98234000D03*
X65068000Y-98234000D03*
X65868000Y-98234000D03*
X66668000Y-98234000D03*
X64268000Y-96534000D03*
X66668000Y-96534000D03*
X65068000Y-96534000D03*
X65868000Y-96534000D03*
G04 #@! TD*
G04 #@! TO.C,RN1*
X70872000Y-98234000D03*
X71672000Y-98234000D03*
X72472000Y-98234000D03*
X73272000Y-98234000D03*
X70872000Y-96534000D03*
X73272000Y-96534000D03*
X71672000Y-96534000D03*
X72472000Y-96534000D03*
G04 #@! TD*
D25*
G04 #@! TO.C,R3*
X103600000Y-101800000D03*
X103600000Y-100150000D03*
G04 #@! TD*
D26*
G04 #@! TO.C,R2*
X105600000Y-100150000D03*
X105600000Y-101800000D03*
G04 #@! TD*
D25*
G04 #@! TO.C,R1*
X103750000Y-113325000D03*
X103750000Y-111675000D03*
G04 #@! TD*
D27*
G04 #@! TO.C,Q4*
X58500000Y-118500000D03*
X60500000Y-117550000D03*
X60500000Y-119450000D03*
G04 #@! TD*
G04 #@! TO.C,Q3*
X58500000Y-111500000D03*
X60500000Y-110550000D03*
X60500000Y-112450000D03*
G04 #@! TD*
G04 #@! TO.C,Q2*
X58500000Y-104500000D03*
X60500000Y-103550000D03*
X60500000Y-105450000D03*
G04 #@! TD*
G04 #@! TO.C,Q1*
X58500000Y-97500000D03*
X60500000Y-96550000D03*
X60500000Y-98450000D03*
G04 #@! TD*
D28*
G04 #@! TO.C,J1*
X116116000Y-116462000D03*
X111716000Y-116462000D03*
D29*
X115516000Y-113862000D03*
X114716000Y-113862000D03*
X113916000Y-113862000D03*
X113116000Y-113862000D03*
X112316000Y-113862000D03*
D30*
X118316000Y-113862000D03*
X109516000Y-113862000D03*
X118316000Y-119362000D03*
X109516000Y-119362000D03*
G04 #@! TD*
D31*
G04 #@! TO.C,C3*
X76775000Y-107200000D03*
X75225000Y-107200000D03*
G04 #@! TD*
D32*
G04 #@! TO.C,C6*
X119000000Y-102800000D03*
X119000000Y-104700000D03*
G04 #@! TD*
D33*
G04 #@! TO.C,C5*
X119000000Y-106725000D03*
X119000000Y-108275000D03*
G04 #@! TD*
D31*
G04 #@! TO.C,C10*
X113525000Y-74250000D03*
X111975000Y-74250000D03*
G04 #@! TD*
G04 #@! TO.C,C9*
X97025000Y-74250000D03*
X95475000Y-74250000D03*
G04 #@! TD*
G04 #@! TO.C,C8*
X80525000Y-74250000D03*
X78975000Y-74250000D03*
G04 #@! TD*
D34*
G04 #@! TO.C,C2*
X102000000Y-113275000D03*
X102000000Y-111725000D03*
G04 #@! TD*
D32*
G04 #@! TO.C,C1*
X105750000Y-111550000D03*
X105750000Y-113450000D03*
G04 #@! TD*
D31*
G04 #@! TO.C,C7*
X64025000Y-74250000D03*
X62475000Y-74250000D03*
G04 #@! TD*
D34*
G04 #@! TO.C,C4*
X103750000Y-110050000D03*
X103750000Y-108500000D03*
G04 #@! TD*
M02*
